<?xml version="1.0" standalone="no"?><!DOCTYPE svg PUBLIC "-//W3C//DTD SVG 1.1//EN" "http://www.w3.org/Graphics/SVG/1.1/DTD/svg11.dtd"><svg t="1736258970778" class="icon" viewBox="0 0 1024 1024" version="1.1" xmlns="http://www.w3.org/2000/svg" p-id="3520" xmlns:xlink="http://www.w3.org/1999/xlink" width="200" height="200"><path d="M870.2 238c-5-2.9-10.5-4.4-16.1-4.4-7.5 0-14.9 2.7-20.9 7.9l-161.7 142-132-210.5c-6-9.5-16.5-14.3-27.1-14.3-10.6 0-21.2 4.8-27.1 14.3L353.1 383.7l-161.8-142c-6-5.2-13.4-7.9-20.8-7.9-5.5 0-11 1.5-16.1 4.4-11.8 6.9-18.1 20.8-15.8 34.6l76.8 449.5c2.7 15.9 10.2 26.8 26 26.8h541.8s1.2 0.3 3 0.3c5.9 0 19-2.9 23.1-27.1L886 272.6c2.3-13.8-3.9-27.6-15.8-34.6zM754.9 690H269.8l-60.4-353.8 104.8 91.9 52.2 45.8 36.9-58.8 109-174.1 109.2 173.9 36.9 58.7 52.2-45.8 104.7-92L754.9 690zM788 828.3H236.6c-10.9 0-19.7 8.8-19.7 19.7v19.7c0 10.9 8.8 19.7 19.7 19.7H788c10.9 0 19.7-8.8 19.7-19.7V848c0-10.9-8.8-19.7-19.7-19.7z" fill="#2c2c2c" p-id="3521"></path></svg>