<?xml version="1.0" standalone="no"?><!DOCTYPE svg PUBLIC "-//W3C//DTD SVG 1.1//EN" "http://www.w3.org/Graphics/SVG/1.1/DTD/svg11.dtd"><svg t="1736259024162" class="icon" viewBox="0 0 1024 1024" version="1.1" xmlns="http://www.w3.org/2000/svg" p-id="3727" xmlns:xlink="http://www.w3.org/1999/xlink" width="200" height="200"><path d="M878.18 118.28l-732.3 0c-58.14 0-105.42 47.34-105.42 105.42l0 576.48c0 58.2 47.34 105.48 105.42 105.48l732.3 0c58.14 0 105.42-47.28 105.42-105.48l0-576.42c-0.06-58.14-47.34-105.48-105.42-105.48zM923.54 800.24c0 25.08-20.4 45.48-45.42 45.48l-732.24 0c-25.02 0-45.42-20.4-45.42-45.48l0-576.48c0-25.02 20.4-45.42 45.42-45.42l732.3 0c25.02 0 45.42 20.4 45.42 45.42l0 576.48zM181.04 264.08l661.86 0 0 61.86-661.86 0 0-61.86zM542 390.74l300.96 0 0 61.86-300.96 0 0-61.86zM542 516.08l300.96 0 0 88.74-300.96 0 0-88.74zM542 692l246.36 0 0 61.86-246.36 0 0-61.86zM181.04 391.64l285.96 0 0 362.16-285.96 0 0-362.16z" fill="#2c2c2c" p-id="3728"></path></svg>