<?xml version="1.0" standalone="no"?><!DOCTYPE svg PUBLIC "-//W3C//DTD SVG 1.1//EN" "http://www.w3.org/Graphics/SVG/1.1/DTD/svg11.dtd"><svg t="1733733183938" class="icon" viewBox="0 0 1024 1024" version="1.1" xmlns="http://www.w3.org/2000/svg" p-id="933" xmlns:xlink="http://www.w3.org/1999/xlink" width="200" height="200"><path d="M726.4 185.6H297.6c-60.8 0-112 51.2-112 112v380.8c0 60.8 51.2 156.8 112 156.8h400l140.8-140.8V297.6c0-60.8-51.2-112-112-112z m-211.2 419.2H320c-22.4 0-41.6-22.4-41.6-48s19.2-48 41.6-48h195.2c22.4 0 41.6 22.4 41.6 48 3.2 28.8-16 48-41.6 48z m0-185.6H320c-22.4 0-41.6-22.4-41.6-48s19.2-48 41.6-48h195.2c22.4 0 41.6 22.4 41.6 48 3.2 25.6-16 48-41.6 48z m89.6 371.2v-92.8c0-51.2-6.4-92.8 44.8-92.8h137.6l-182.4 185.6z" fill="#606060" p-id="934"></path></svg>