<?xml version="1.0" standalone="no"?><!DOCTYPE svg PUBLIC "-//W3C//DTD SVG 1.1//EN" "http://www.w3.org/Graphics/SVG/1.1/DTD/svg11.dtd"><svg t="1738821048000" class="icon" viewBox="0 0 1024 1024" version="1.1" xmlns="http://www.w3.org/2000/svg" p-id="1649" xmlns:xlink="http://www.w3.org/1999/xlink" width="200" height="200"><path d="M725.4 86c-82.6 0-160.452 37.054-212.4 97.28C461.05 123.052 383.2 86 300.6 86 154.251 86 41 197.16 41 340.765c0 176.023 160.453 317.298 403.55 535.007L513 936l68.449-60.228C824.549 658.062 985 516.788 985 340.765 985 197.16 871.748 86 725.4 86zM542.131 814.831l-9.588 8.578-19.543 17.2-19.543-17.2-9.542-8.578c-114.45-102.444-213.23-190.917-278.59-270.029-63.425-76.851-91.727-139.777-91.727-204.038 0-50.613 19.13-97.234 53.838-131.29 34.57-33.941 81.863-52.642 133.165-52.642 59.322 0 117.954 26.932 156.858 72.034l55.543 64.469 55.544-64.47c38.903-45.101 97.534-72.033 156.856-72.033 51.303 0 98.595 18.7 133.165 52.641 34.709 34.057 53.837 80.678 53.837 131.29 0 64.261-28.302 127.186-91.726 204.04-65.363 79.11-164.143 167.584-278.547 270.028z" fill="white" p-id="1650"></path></svg>