<?xml version="1.0" standalone="no"?><!DOCTYPE svg PUBLIC "-//W3C//DTD SVG 1.1//EN" "http://www.w3.org/Graphics/SVG/1.1/DTD/svg11.dtd"><svg t="1736755557872" class="icon" viewBox="0 0 1024 1024" version="1.1" xmlns="http://www.w3.org/2000/svg" p-id="1409" xmlns:xlink="http://www.w3.org/1999/xlink" width="200" height="200"><path d="M733.996 446.19c3.997-257.805-209.277-374.616-223.608-382.17v-0.399l-0.381 0.197a71.696 71.696 0 0 0-0.382-0.197v0.398c-14.33 7.555-227.605 124.366-223.608 382.171-43.427 27.917-88.921 77.548-81.683 163.368s90.99 142.688 123.042 139.586 22.747-26.883 22.747-26.883l10.992-44.46s47.255 71.478 62.42 71.464c13.604-1.086 78.347-0.119 86.089 0.002v0.012l0.382-0.006 0.381 0.006v-0.012c7.743-0.12 72.485-1.088 86.09-0.002 15.165 0.014 62.42-71.465 62.42-71.465l10.992 44.46s-9.306 23.782 22.747 26.884c32.053 3.102 115.805-53.767 123.042-139.586s-38.255-135.45-81.682-163.368z m-223.99-3.794c-6.07-0.086-85.383-2.98-92.675-95.123 2.654-87.596 86.43-95.333 92.676-95.788 6.245 0.455 90.02 8.191 92.675 95.788-7.292 92.143-86.604 95.036-92.675 95.123z m-46.835 444.266c0 10.47-8.487 18.956-18.956 18.956-10.47 0-18.956-8.488-18.956-18.956v-93.747c0-10.47 8.488-18.956 18.956-18.956 10.47 0 18.956 8.488 18.956 18.956v93.747z m69.62 50.75c0 10.613-8.602 19.216-19.214 19.216-10.612 0-19.215-8.603-19.215-19.215V797.999c0-10.612 8.603-19.215 19.215-19.215s19.215 8.603 19.215 19.215v139.414z m64.107-72.808c0 10.47-8.488 18.955-18.956 18.955-10.47 0-18.956-8.487-18.956-18.955V797.74c0-10.47 8.487-18.956 18.956-18.956 10.47 0 18.956 8.487 18.956 18.956v66.864z" fill="#2c2c2c" p-id="1410"></path></svg>