<?xml version="1.0" standalone="no"?><!DOCTYPE svg PUBLIC "-//W3C//DTD SVG 1.1//EN" "http://www.w3.org/Graphics/SVG/1.1/DTD/svg11.dtd"><svg t="1739242188382" class="icon" viewBox="0 0 1024 1024" version="1.1" xmlns="http://www.w3.org/2000/svg" p-id="1459" xmlns:xlink="http://www.w3.org/1999/xlink" width="200" height="200"><path d="M509.824 874.624c-51.3536 0-94.336-21.76-112.9984-53.632h225.9712c-18.6624 31.8464-61.6448 53.632-112.9728 53.632zM507.5968 142.464c53.2992 0 98.3296 33.7152 110.0288 80.128 97.3312 47.4624 153.088 142.976 153.088 263.936l-0.0768 22.3232c-0.3072 34.432-1.9712 72.3968-11.0592 104.2688 13.5424 8.704 26.6496 20.8128 37.5552 34.944 17.5872 22.4 27.264 46.4384 27.264 67.6352v2.0224c0 60.7744-66.6368 88.448-128.6144 88.448H319.4112c-30.8992 0-59.776-6.8608-81.3824-19.3792-27.648-16.1536-42.8032-41.0112-42.8032-70.0672v-2.048c0-36.3264 26.6496-79.36 60.5696-101.5552-11.3152-40.3712-11.3152-92.8768-11.3152-132.6592 0-118.912 54.3232-209.9968 153.088-257.8432 11.6992-46.4384 56.704-80.1536 110.0288-80.1536z m0 64c-22.7584 0-41.1136 12.416-46.976 28.544l-1.024 3.2512-7.296 28.928-26.8544 13.0304c-76.2368 36.9408-116.9664 105.4464-116.9664 200.2432l0.1024 24.576c0.128 14.08 0.4352 24.32 1.0496 35.072l0.256 4.0704c1.1776 18.5344 3.2512 34.1248 6.2208 46.5664l1.3056 5.12 12.6464 45.1328-39.1936 25.6768c-16.0768 10.496-29.5936 31.744-31.4368 45.0816l-0.2048 2.944v2.0224c0 5.632 2.56 9.8048 10.88 14.6688 9.984 5.8112 25.216 9.8048 42.6496 10.624l6.656 0.1536h376.3712c21.632 0 42.0608-4.864 54.8352-12.4416 6.9888-4.1472 9.216-6.8096 9.7024-10.3936l0.0768-1.6128v-2.0224c0-5.5808-4.3008-16.256-13.9264-28.544-5.12-6.656-11.0592-12.544-16.9984-17.0496l-4.4544-3.1232-40.0128-25.6768 13.056-45.7216c3.328-11.6992 5.6064-26.24 6.9632-43.8528l0.512-7.7312c0.9472-15.7696 1.152-29.0816 1.152-57.472 0-94.08-39.8336-165.504-110.3872-202.9824l-6.7072-3.4048-26.752-13.056-7.2704-28.8256c-4.4544-17.664-23.7056-31.7952-47.9744-31.7952z" fill="white" p-id="1460"></path><path d="M558.7712 337.3824a25.6 25.6 0 0 1 36.1984-0.3584c57.9584 56.8832 77.6448 128.6656 58.5472 212.0192a25.6 25.6 0 0 1-49.92-11.4176c15.2064-66.3296 0.512-119.8848-44.4928-164.0448a25.6 25.6 0 0 1-0.3328-36.1984z" fill="#2c2c2c" p-id="1461"></path></svg>